<svg xmlns="http://www.w3.org/2000/svg" viewBox="0 0 410 1" height="2.5em" width="6em">
  <g aria-label="P" transform="translate(0 0) scale(3) translate(-444.42519 25)"> <path class="c1" d="M102.91699,74.09338l-24.59082,0.00018l-0.00024,13.27228l24.59106-0.00018 c3.0293,0,5.48486,2.45563,5.48486,5.48486c0,3.02893-2.45508,5.48438-5.48413,5.48474v-0.00085l-9.99146,0.00018l-0.00073,0.0097 v-0.00879l-14.59961,13.27228v12.922h14.59961v-12.92297l9.99146-0.00012v0.00092c10.35938,0,18.75708-8.39783,18.75708-18.75708 S113.27637,74.09338,102.91699,74.09338z" transform="translate(366.09927 -124.49338)" stroke-width="0" stroke-linejoin="miter" stroke-miterlimit="2" fill="#ffffff" stroke="#ffffff"/> <linearGradient id="6881973a-3ba6-419b-9a37-6f5ca12ec9af" gradientUnits="userSpaceOnUse" x1="85.62576" y1="101.43786" x2="85.62576" y2="77.89201" gradientTransform="matrix(1 0 0 -1 0 202)"> <stop offset="0" style="stop-color:#FFFFFF;stop-opacity:0.5"/> <stop offset="0.01383" style="stop-color:#FFFFFF;stop-opacity:0.49309"/> <stop offset="1" style="stop-color:#FFFFFF;stop-opacity:0"/> </linearGradient> <polygon class="highlight" fill="url(#6881973a-3ba6-419b-9a37-6f5ca12ec9af)" points="92.92561,124.52979 78.32592,124.52979 78.32592,111.6078 92.92561,98.33553 " transform="translate(366.09927 -124.49338)" stroke-width="0" stroke-linejoin="miter" stroke-miterlimit="2" opacity="1"/> <linearGradient id="aaf27ca3-3a23-4897-ad0f-c13320a53872" gradientUnits="userSpaceOnUse" x1="100" y1="90.3924" x2="100" y2="127.90662" gradientTransform="matrix(1 0 0 -1 0 202)"> <stop offset="0.29702" style="stop-color:#FFFFFF;stop-opacity:0"/> <stop offset="1" style="stop-color:#FFFFFF;stop-opacity:0.5"/> </linearGradient> <path class="highlight" fill="url(#aaf27ca3-3a23-4897-ad0f-c13320a53872)" d="M102.91699,74.09338l-24.59082,0.00018l-0.00024,13.27228l24.59106-0.00018 c3.0293,0,5.48486,2.45563,5.48486,5.48486c0,3.02917-2.45557,5.4848-5.48486,5.4848v13.27228 c10.35938,0,18.75708-8.39783,18.75708-18.75708S113.27637,74.09338,102.91699,74.09338z" transform="translate(366.09927 -124.49338)" stroke-width="0" stroke-linejoin="miter" stroke-miterlimit="2" opacity="1"/> <linearGradient id="3d1ededb-9281-44c3-9fee-c19696aafbc8" gradientUnits="userSpaceOnUse" x1="92.92641" y1="97.02937" x2="102.91784" y2="97.02937" gradientTransform="matrix(1 0 0 -1 0 202)"> <stop offset="0" style="stop-color:#000000;stop-opacity:0.4"/> <stop offset="0.27595" style="stop-color:#0F0D0D;stop-opacity:0.25"/> <stop offset="1" style="stop-color:#231F20;stop-opacity:0"/> </linearGradient> <polygon class="highlight" fill="url(#3d1ededb-9281-44c3-9fee-c19696aafbc8)" points="92.92651,111.60686 92.92641,98.33458 102.91775,98.3344 102.91784,111.60667 " transform="translate(366.09927 -124.49338)" stroke-width="0" stroke-linejoin="miter" stroke-miterlimit="2" opacity="1"/> </g>
  <g aria-label="F" transform="translate(145 0) scale(3) translate(-492.81706 25)"> <polygon class="c1" points="120.52075,87.3653 120.52075,74.09302 94.07935,74.0932 94.07935,74.09363 79.47925,87.3653 79.47925,124.52972 94.07971,124.52972 94.07971,106.61084 118.09473,106.61066 118.09473,93.33844 94.07971,93.33856 94.07971,87.36548 " transform="translate(413.33787 -124.49302)" stroke-width="0" stroke-linejoin="miter" stroke-miterlimit="2" fill="#ffffff" stroke="#ffffff"/> <linearGradient id="7c525f22-aaad-451b-af7c-7b856a4e2f7c" gradientUnits="userSpaceOnUse" x1="94.07934" y1="90.35196" x2="120.52081" y2="90.35196"> <stop offset="0" style="stop-color:#000000;stop-opacity:0.4"/> <stop offset="0.27595" style="stop-color:#0F0D0D;stop-opacity:0.28962"/> <stop offset="0.67484" style="stop-color:#1E1A1B;stop-opacity:0.13006"/> <stop offset="1" style="stop-color:#231F20;stop-opacity:0"/> </linearGradient> <path class="highlight" fill="url(#7c525f22-aaad-451b-af7c-7b856a4e2f7c)" d="M94.07953,106.61088V93.33861l24.01519-0.00018l-0.00001,13.27228L94.07953,106.61088z M120.52081,87.36532V74.09304l-26.44147,0.00018v13.27227L120.52081,87.36532z" transform="translate(413.33787 -124.49302)" stroke-width="0" stroke-linejoin="miter" stroke-miterlimit="2" opacity="1"/> <linearGradient id="104d26b8-bc6f-4d50-a9ce-091e68227820" gradientUnits="userSpaceOnUse" x1="86.77944" y1="124.52972" x2="86.77944" y2="74.09335"> <stop offset="0" style="stop-color:#000000;stop-opacity:0.3"/> <stop offset="0.21414" style="stop-color:#0F0D0D;stop-opacity:0.21727"/> <stop offset="0.52404" style="stop-color:#1E1A1B;stop-opacity:0.09755"/> <stop offset="0.77654" style="stop-color:#231F20;stop-opacity:0"/> </linearGradient> <polygon class="highlight" fill="url(#104d26b8-bc6f-4d50-a9ce-091e68227820)" points="79.47919,124.52972 94.07969,124.52972 94.07969,74.09335 79.47919,87.3653 " transform="translate(413.33787 -124.49302)" stroke-width="0" stroke-linejoin="miter" stroke-miterlimit="2" opacity="1"/> <linearGradient id="ffcbd8f1-d728-4426-b563-c3677c8201a4" gradientUnits="userSpaceOnUse" x1="86.77944" y1="74.76357" x2="86.77944" y2="123.2663"> <stop offset="0" style="stop-color:#FFFFFF;stop-opacity:0.5"/> <stop offset="0.01111" style="stop-color:#FFFFFF;stop-opacity:0.49309"/> <stop offset="0.80327" style="stop-color:#FFFFFF;stop-opacity:0"/> </linearGradient> <polygon class="highlight" fill="url(#ffcbd8f1-d728-4426-b563-c3677c8201a4)" points="79.47919,124.52972 94.07969,124.52972 94.07969,74.09335 79.47919,87.3653 " transform="translate(413.33787 -124.49302)" stroke-width="0" stroke-linejoin="miter" stroke-miterlimit="2" opacity="1"/> </g>
  <g aria-label="C" transform="translate(282 0) scale(3) translate(-538.71256 25)"> <polygon class="c1" points="120.52081,87.36542 120.52081,74.09314 94.07935,74.09332 94.07935,74.09363 79.47919,87.3656 79.47919,111.43201 94.07928,124.52936 94.07928,124.70477 120.52075,124.70459 120.52075,111.43231 94.07971,111.4325 94.07971,87.36554 " transform="translate(459.23337 -124.49313)" stroke-width="0" stroke-linejoin="miter" stroke-miterlimit="2" fill="#ffffff" stroke="#ffffff"/> <linearGradient id="de03852e-0b1a-4cde-9dac-99474ebaa7d5" gradientUnits="userSpaceOnUse" x1="94.07928" y1="99.39895" x2="120.52081" y2="99.39895"> <stop offset="0" style="stop-color:#000000;stop-opacity:0.4"/> <stop offset="0.27595" style="stop-color:#0F0D0D;stop-opacity:0.28962"/> <stop offset="0.67484" style="stop-color:#1E1A1B;stop-opacity:0.13006"/> <stop offset="1" style="stop-color:#231F20;stop-opacity:0"/> </linearGradient> <path class="highlight" fill="url(#de03852e-0b1a-4cde-9dac-99474ebaa7d5)" d="M94.07934,87.36559V74.09331l26.44147-0.00018V87.3654L94.07934,87.36559z M120.52074,124.7046 l0.00001-13.27228l-26.44147,0.00018l-0.00001,13.27227L120.52074,124.7046z" transform="translate(459.23337 -124.49313)" stroke-width="0" stroke-linejoin="miter" stroke-miterlimit="2" opacity="1"/> <linearGradient id="b50d5b9b-ebff-4e15-a635-17e8416c98ef" gradientUnits="userSpaceOnUse" x1="86.77944" y1="79.32394" x2="86.77944" y2="120.0817"> <stop offset="0.22346" style="stop-color:#231F20;stop-opacity:0"/> <stop offset="0.47596" style="stop-color:#1E1A1B;stop-opacity:0.09755"/> <stop offset="0.78586" style="stop-color:#0F0D0D;stop-opacity:0.21727"/> <stop offset="1" style="stop-color:#000000;stop-opacity:0.3"/> </linearGradient> <polygon class="highlight" fill="url(#b50d5b9b-ebff-4e15-a635-17e8416c98ef)" points="79.47919,111.43201 94.07969,124.52972 94.07969,74.09335 79.47919,87.3656 " transform="translate(459.23337 -124.49313)" stroke-width="0" stroke-linejoin="miter" stroke-miterlimit="2" opacity="1"/> <linearGradient id="522acbd8-60a5-4652-9a49-79cdac891472" gradientUnits="userSpaceOnUse" x1="86.77944" y1="79.32394" x2="86.77944" y2="120.0817"> <stop offset="0" style="stop-color:#FFFFFF;stop-opacity:0.5"/> <stop offset="0.01202" style="stop-color:#FFFFFF;stop-opacity:0.49309"/> <stop offset="0.86929" style="stop-color:#FFFFFF;stop-opacity:0"/> </linearGradient> <polygon class="highlight" fill="url(#522acbd8-60a5-4652-9a49-79cdac891472)" points="79.47919,111.43201 94.07969,124.52972 94.07969,74.09335 79.47919,87.3656 " transform="translate(459.23337 -124.49313)" stroke-width="0" stroke-linejoin="miter" stroke-miterlimit="2" opacity="1"/> </g>
</svg>